# xmcd CD database file
#
# Track frame offsets:
#	182
#	23675
#	40717
#	54542
#	73275
#	90955
#	103290
#	131612
#	155687
#	166212
#	173440
#	183542
#	192985
#
# Disc length: 2859 seconds
#
# Revision: 0
# Processed by: cddbd v1.5.2PL0 Copyright (c) Steve Scherf et al.
# Submitted via: CDex 1.51
#
DISCID=a90b290d
DTITLE=Block, Rory - Turning point
DYEAR=1990
DGENRE=Blues
TTITLE0=Turning point
TTITLE1=Holdin' on
TTITLE2=Far away
TTITLE3=All of my life
TTITLE4=Spiderboy
TTITLE5=Gedachtentrein
TTITLE6=All as one
TTITLE7=Gypsie boy
TTITLE8=Heather's song
TTITLE9=Old times are gone
TTITLE10=Leavin' here
TTITLE11=Down the highway
TTITLE12=Tomorrow
EXTD=YEAR: 1990
EXTT0=
EXTT1=
EXTT2=
EXTT3=
EXTT4=
EXTT5=
EXTT6=
EXTT7=
EXTT8=
EXTT9=
EXTT10=
EXTT11=
EXTT12=
PLAYORDER=
